<svg width="116px" height="26px" viewBox="0 0 116 26" version="1.1" xmlns="http://www.w3.org/2000/svg" xmlns:xlink="http://www.w3.org/1999/xlink">
    <g id="Page-1" stroke="none" stroke-width="1" fill="none" fill-rule="evenodd">
        <g id="Version-B" transform="translate(-329.000000, -756.000000)">
            <g id="Logos" transform="translate(80.000000, 745.000000)">
                <g id="Adobe" transform="translate(249.000000, 11.000000)">
                    <g id="Group-15" transform="translate(34.666667, 0.000000)">
                        <polygon id="Clip-11" points="0.257539785 0 65.024591 0 65.024591 25.9842424 0.257539785 25.9842424"></polygon>
                        <path d="M6.5927557,16.2095556 L7.5091243,10.976202 C7.77139441,9.52939394 8.14298753,6.93963636 8.41077634,5.27773737 L8.50091527,5.27773737 C8.74768043,6.9320202 9.08195656,9.44692929 9.32294022,10.9683232 L10.1591561,16.2095556 L6.5927557,16.2095556 Z M10.5893527,19.985596 L11.6584056,25.7032323 L16.4008168,25.7032323 L11.5304241,0.668646465 L5.69793634,0.668646465 L0.257539785,25.7032323 L4.98392043,25.7032323 L6.08240645,19.985596 L10.5893527,19.985596 L10.5893527,19.985596 Z" id="Fill-10" fill="#000000" opacity="0.35172526"></path>
                        <path d="M26.9063376,19.3009293 C26.9063376,19.7678788 26.847997,20.1552525 26.7441927,20.4388889 C26.3662925,21.6884646 25.6843376,22.0109697 25.0538908,22.0109697 C23.7070628,22.0109697 22.7620495,20.2143434 22.7620495,16.7594949 C22.7620495,13.810202 23.3982778,11.3320606 25.101194,11.3320606 C26.0919338,11.3320606 26.6622004,12.3418586 26.8398503,13.4514545 C26.9063376,13.8015354 26.9063376,14.1886465 26.9063376,14.5095758 L26.9063376,19.3009293 Z M26.9063376,0 L26.9063376,9.06008081 L26.8319665,9.06008081 C26.3581458,8.03111111 25.3855389,7.22563636 23.7643523,7.22563636 C20.7014684,7.22563636 17.9242434,10.3280404 17.9242434,16.6578586 C17.9242434,21.7147273 19.7028447,26 23.5785557,26 C25.2417897,26 26.6950499,24.9400404 27.3617626,23.6479192 L27.4516387,23.6479192 L27.717588,25.7032323 L31.9068142,25.7032323 C31.8403269,24.0384444 31.7580718,22.0464242 31.7580718,20.3346263 L31.7580718,0 L26.9063376,0 L26.9063376,0 Z" id="Fill-12" fill="#000000" opacity="0.35172526"></path>
                        <path d="M41.5219832,22.303798 C39.823009,22.303798 39.32396,19.6859394 39.32396,16.583798 C39.32396,14.0673131 39.7055394,10.9218384 41.484929,10.9218384 C43.1334465,10.9218384 43.5447217,14.0673131 43.5447217,16.583798 C43.5447217,19.2465657 43.1334465,22.303798 41.5593002,22.303798 L41.5219832,22.303798 Z M41.5143622,26 C44.2274649,26 48.4198447,24.1245859 48.4198447,16.5543838 C48.4198447,10.8296566 45.8473376,7.22563636 41.5614026,7.22563636 C37.9532176,7.22563636 34.5232082,10.1557576 34.5232082,16.6715152 C34.5232082,22.572202 37.1325067,26 41.477308,26 L41.5143622,26 L41.5143622,26 Z" id="Fill-13" fill="#000000" opacity="0.35172526"></path>
                        <path d="M56.0130637,14.1266667 C56.0130637,13.7981212 56.1011002,13.3014949 56.1967578,13.002101 C56.4490417,12.1173131 57.0915772,11.3320606 57.8555243,11.3320606 C59.46252,11.3320606 60.1865222,13.3574343 60.1865222,16.4958182 C60.1865222,19.9800808 59.499837,22.0109697 57.8710292,22.0109697 C57.2936671,22.0109697 56.6119751,21.6587879 56.2046417,20.3645657 C56.1011002,20.0888081 56.0130637,19.6586263 56.0130637,19.1992929 L56.0130637,14.1266667 Z M51.1613295,20.3346263 C51.1613295,22.0464242 51.0793372,24.0970101 51.0128499,25.7032323 L55.1723802,25.7032323 L55.4383295,23.5659798 L55.5282056,23.5659798 C56.5176314,25.3794141 57.5853703,26 59.0964456,26 C62.5009639,26 65.024591,22.4842222 65.024591,16.1150101 C65.024591,11.2262222 63.399988,7.22563636 59.8785256,7.22563636 C58.1219991,7.22563636 56.9656981,8.06026263 56.0874348,9.37838384 L56.0130637,9.37838384 L56.0130637,0 L51.1613295,0 L51.1613295,20.3346263 L51.1613295,20.3346263 Z" id="Fill-14" fill="#000000" opacity="0.35172526"></path>
                    </g>
                    <path d="M106.847032,15.0870296 C106.885982,13.264941 107.528521,10.9538148 109.103239,10.9538148 C110.542809,10.9538148 111.159207,12.770687 111.143523,15.0870296 L106.847032,15.0870296 Z M115.409952,18.5016853 C115.497523,17.9583972 115.555556,17.2479235 115.555556,15.9560819 C115.555556,10.4934675 113.282619,7.42857143 109.39131,7.42857143 C105.321459,7.42857143 102.151111,11.0435369 102.151111,17.1156877 C102.151111,22.755399 104.860598,26 109.792047,26 C111.61667,26 113.523114,25.6758007 114.752251,25.1729397 L114.120168,21.7157704 C113.237134,22.0342316 112.050345,22.3294799 110.67116,22.3294799 C108.528665,22.3294799 106.897222,21.2867215 106.83919,18.4727343 L115.409952,18.5016853 L115.409952,18.5016853 Z" id="Fill-16" fill="#000000" opacity="0.35172526"></path>
                    <polyline id="Fill-18" fill="#000000" opacity="0.345424107" points="0 0 11.0933333 0 0 26 0 0"></polyline>
                    <polyline id="Fill-19" fill="#000000" opacity="0.345424107" points="10.1688889 20.4538355 15.2483239 20.4538355 17.1653172 25.5357143 21.7244444 25.5357143 14.8853555 9.75 10.1688889 20.4538355"></polyline>
                    <polyline id="Fill-20" fill="#000000" opacity="0.345424107" points="18.4888889 0 29.12 0 29.12 26 18.4888889 0"></polyline>
                </g>
            </g>
        </g>
    </g>
</svg>