<svg width="223px" height="28px" viewBox="0 0 223 28" version="1.1" xmlns="http://www.w3.org/2000/svg" xmlns:xlink="http://www.w3.org/1999/xlink">
    <g id="Page-1" stroke="none" stroke-width="1" fill="none" fill-rule="evenodd">
        <g id="Version-B" transform="translate(-896.000000, -754.000000)" fill="#000000">
            <g id="Logos" transform="translate(80.000000, 745.000000)">
                <g id="Atlassian" transform="translate(816.000000, 9.000000)">
                    <path d="M8.08705882,12.9952941 C7.92250703,12.7797271 7.65714783,12.6659885 7.3875611,12.6954746 C7.11797436,12.7249606 6.88347523,12.8933712 6.76941176,13.1394118 L0.0864705882,26.5011765 C-0.0379736812,26.7492011 -0.0247871367,27.0440382 0.121301717,27.2799633 C0.267390571,27.5158884 0.525449076,27.6590965 0.802941176,27.6582353 L10.1088235,27.6582353 C10.4138484,27.6663048 10.6948632,27.4934968 10.8252941,27.2176471 C12.8264706,23.0588235 11.6117647,16.7588235 8.08705882,12.9952941 Z" id="Path" opacity="0.35"></path>
                    <path d="M12.9911765,0.823529412 C9.59062642,6.03685094 9.19153348,12.6570986 11.9411765,18.2411765 L16.45,27.2176471 C16.5859097,27.4885302 16.8634058,27.6591744 17.1664706,27.6582353 L26.4723529,27.6582353 C26.7476443,27.6548422 27.0017872,27.5099288 27.1449085,27.2747412 C27.2880297,27.0395537 27.2999563,26.7472418 27.1764706,26.5011765 L14.35,0.823529412 C14.2246337,0.56216954 13.9604601,0.395892971 13.6705882,0.395892971 C13.3807164,0.395892971 13.1165428,0.56216954 12.9911765,0.823529412 Z" id="Path" opacity="0.35"></path>
                    <path d="M122.145882,11.5541176 C122.145882,14.8482353 123.681765,17.4917647 129.685294,18.6488235 C133.267647,19.3982353 134.017059,19.9788235 134.017059,21.1729412 C134.017059,22.3670588 133.267647,23.0835294 130.722941,23.0835294 C127.672822,23.0284324 124.683755,22.2192766 122.022353,20.7282353 L122.022353,26.1223529 C123.83,27.0076471 126.218235,28 130.669412,28 C136.948824,28 139.44,25.2041176 139.44,21.0411765 M139.44,21.0411765 C139.44,17.1170588 137.360588,15.2764706 131.488824,14.0123529 C128.248235,13.2958824 127.461765,12.5794118 127.461765,11.5417647 C127.461765,10.2447059 128.622941,9.70117647 130.755882,9.70117647 C133.35,9.70117647 135.907059,10.4876471 138.332353,11.5788235 L138.332353,6.43588235 C136.007291,5.37737353 133.474822,4.85258965 130.920588,4.9 C125.118824,4.9 122.117059,7.42411765 122.117059,11.5541176" id="Shape" fill-rule="nonzero" opacity="0.35"></path>
                    <polygon id="Path" opacity="0.35" points="202.802353 5.24176471 202.802353 27.6582353 207.578824 27.6582353 207.578824 10.5658824 209.592353 15.1035294 216.349412 27.6582353 222.352941 27.6582353 222.352941 5.24176471 217.576471 5.24176471 217.576471 19.7111765 215.768824 15.5111765 210.341765 5.24176471"></polygon>
                    <rect id="Rectangle" opacity="0.35" x="167.201176" y="5.24176471" width="5.22117647" height="22.4164706"></rect>
                    <path d="M161.177059,21.0411765 C161.177059,17.1170588 159.097647,15.2764706 153.225882,14.0123529 C149.985294,13.2958824 149.198824,12.5794118 149.198824,11.5417647 C149.198824,10.2447059 150.36,9.70117647 152.492941,9.70117647 C155.087059,9.70117647 157.644118,10.4876471 160.069412,11.5788235 L160.069412,6.43588235 C157.744349,5.37737353 155.21188,4.85258965 152.657647,4.9 C146.855882,4.9 143.854118,7.42411765 143.854118,11.5541176 C143.854118,14.8482353 145.39,17.4917647 151.393529,18.6488235 C154.975882,19.3982353 155.725294,19.9788235 155.725294,21.1729412 C155.725294,22.3670588 154.975882,23.0835294 152.431176,23.0835294 C149.381057,23.0284324 146.39199,22.2192766 143.730588,20.7282353 L143.730588,26.1223529 C145.538235,27.0076471 147.926471,28 152.377647,28 C158.657059,28 161.148235,25.2041176 161.148235,21.0411765" id="Path" opacity="0.35"></path>
                    <polygon id="Path" opacity="0.35" points="81.5952941 5.24176471 81.5952941 27.6582353 92.3258824 27.6582353 94.0141176 22.8158824 86.8494118 22.8158824 86.8494118 5.24176471"></polygon>
                    <polygon id="Path" opacity="0.35" points="60.3935294 5.24176471 60.3935294 10.0882353 66.1952941 10.0882353 66.1952941 27.6582353 71.4494118 27.6582353 71.4494118 10.0882353 77.6588235 10.0882353 77.6588235 5.24176471"></polygon>
                    <path d="M52.7758824,5.24176471 L45.8911765,5.24176471 L38.0676471,27.6582353 L44.0588235,27.6582353 L45.1541176,23.8823529 C47.8878422,24.6874228 50.7956872,24.6874228 53.5294118,23.8823529 L54.6370588,27.6582353 L60.6076471,27.6582353 L52.7758824,5.24176471 Z M49.3335294,19.8429412 C48.3579933,19.8442922 47.3873128,19.7056235 46.4511765,19.4311765 L49.3335294,9.64352941 L52.2158824,19.4311765 C51.279746,19.7056235 50.3090655,19.8442922 49.3335294,19.8429412 L49.3335294,19.8429412 Z" id="Shape" fill-rule="nonzero" opacity="0.351190476"></path>
                    <path d="M110.822353,5.24176471 L103.937647,5.24176471 L96.1141176,27.6582353 L102.084706,27.6582353 L103.200588,23.8823529 C105.929174,24.6841926 108.830826,24.6841926 111.559412,23.8823529 L112.667059,27.6582353 L118.637647,27.6582353 L110.822353,5.24176471 Z M107.38,19.8429412 C106.404464,19.8442922 105.433783,19.7056235 104.497647,19.4311765 L107.38,9.64352941 L110.262353,19.4311765 C109.326217,19.7056235 108.355536,19.8442922 107.38,19.8429412 L107.38,19.8429412 Z" id="Shape" fill-rule="nonzero" opacity="0.351190476"></path>
                    <path d="M191.231765,5.24176471 L184.347059,5.24176471 L176.523529,27.6582353 L182.494118,27.6582353 L183.61,23.8823529 C186.338586,24.6841926 189.240238,24.6841926 191.968824,23.8823529 L193.076471,27.6582353 L199.047059,27.6582353 L191.231765,5.24176471 Z M187.789412,19.8429412 C186.813876,19.8442922 185.843195,19.7056235 184.907059,19.4311765 L187.789412,9.64352941 L190.671765,19.4311765 C189.735628,19.7056235 188.764948,19.8442922 187.789412,19.8429412 L187.789412,19.8429412 Z" id="Shape" fill-rule="nonzero" opacity="0.351190476"></path>
                </g>
            </g>
        </g>
    </g>
</svg>