<svg width="167px" height="32px" viewBox="0 0 167 32" version="1.1" xmlns="http://www.w3.org/2000/svg" xmlns:xlink="http://www.w3.org/1999/xlink">
    <g id="Page-1" stroke="none" stroke-width="1" fill="none" fill-rule="evenodd" opacity="0.350539435">
        <g id="Version-B" transform="translate(-80.000000, -753.000000)" fill="#000000" fill-rule="nonzero">
            <g id="Logos" transform="translate(80.000000, 745.000000)">
                <g id="Dropbox" transform="translate(0.000000, 8.000000)">
                    <path d="M19.1023251,6.01880878 L9.55116255,12.0376176 L19.1023251,18.0564263 L9.55116255,24.0752351 L0,18.0062696 L9.55116255,11.9874608 L0,6.01880878 L9.55116255,0 L19.1023251,6.01880878 Z M9.5003585,25.9811912 L19.051521,19.9623824 L28.6026836,25.9811912 L19.051521,32 L9.5003585,25.9811912 Z M19.1023251,18.0062696 L28.6534877,11.9874608 L19.1023251,6.01880878 L28.6026836,0 L38.1538462,6.01880878 L28.6026836,12.0376176 L38.1538462,18.0564263 L28.6026836,24.0752351 L19.1023251,18.0062696 Z" id="Shape"></path>
                    <path d="M45.5384615,5.29094522 L53.3666163,5.29094522 C58.3622151,5.29094522 62.4822965,8.08856089 62.4822965,14.483111 L62.4822965,15.8319614 C62.4822965,22.2764689 58.6197202,25.1739994 53.5211194,25.1739994 L45.5384615,25.1739994 L45.5384615,5.29094522 Z M49.9160481,8.88787965 L49.9160481,21.5271076 L53.2636143,21.5271076 C56.0961703,21.5271076 58.0017079,19.7286404 58.0017079,15.7320466 L58.0017079,14.6829407 C58.0017079,10.6863469 55.9931682,8.88787965 53.1091112,8.88787965 L49.9160481,8.88787965 Z M64.7998423,9.08770934 L68.3019116,9.08770934 L68.8684228,12.834516 C69.537936,10.2866875 71.2374696,8.93783707 74.3275307,8.93783707 L75.4090521,8.93783707 L75.4090521,13.2341754 L73.6065165,13.2341754 C70.0529462,13.2341754 69.1774289,14.4331536 69.1774289,17.8302583 L69.1774289,25.2239569 L64.8513434,25.2239569 L64.8513434,9.08770934 L64.7998423,9.08770934 Z M76.2845694,17.4805563 L76.2845694,17.0309395 C76.2845694,11.6355379 79.8381397,8.68804996 84.6792354,8.68804996 C89.6233331,8.68804996 93.0739013,11.6355379 93.0739013,17.0309395 L93.0739013,17.4805563 C93.0739013,22.7760431 89.7263352,25.6236162 84.6792354,25.6236162 C79.3231295,25.5736588 76.2845694,22.7760431 76.2845694,17.4805563 Z M88.6448138,17.4305989 L88.6448138,17.0309395 C88.6448138,14.0334942 87.0997832,12.235027 84.6277343,12.235027 C82.2071865,12.235027 80.6106549,13.8836219 80.6106549,17.0309395 L80.6106549,17.4305989 C80.6106549,20.3281294 82.1556855,21.9767244 84.6277343,21.9767244 C87.0997832,21.926767 88.6448138,20.3281294 88.6448138,17.4305989 Z M95.3399461,9.08770934 L98.9450174,9.08770934 L99.3570256,12.1351121 C100.232543,10.0868578 102.08658,8.68804996 104.816133,8.68804996 C109.039217,8.68804996 111.820272,11.6355379 111.820272,17.080897 L111.820272,17.5305138 C111.820272,22.8260006 108.730211,25.6236162 104.816133,25.6236162 C102.189582,25.6236162 100.387046,24.4745955 99.5115286,22.6261709 L99.5115286,30.7692308 L95.2884451,30.7692308 L95.3399461,9.08770934 L95.3399461,9.08770934 Z M107.442685,17.4305989 L107.442685,17.080897 C107.442685,13.8836219 105.743152,12.2849844 103.477107,12.2849844 C101.056559,12.2849844 99.4600276,14.0834516 99.4600276,17.080897 L99.4600276,17.3806415 C99.4600276,20.2282146 101.005058,22.0266818 103.425606,22.0266818 C105.897655,21.9767244 107.442685,20.4280443 107.442685,17.4305989 Z M118.206398,22.2265115 L117.845891,25.1739994 L114.137818,25.1739994 L114.137818,3.69230769 L118.360901,3.69230769 L118.360901,11.9352824 C119.28792,9.83707068 121.141956,8.68804996 123.768508,8.68804996 C127.734087,8.73800738 130.669645,11.3857508 130.669645,16.731195 L130.669645,17.2307692 C130.669645,22.5762135 127.88859,25.6236162 123.665506,25.6236162 C120.884451,25.5736588 119.081916,24.3247232 118.206398,22.2265115 Z M126.240557,17.2307692 L126.240557,16.8311098 C126.240557,13.8836219 124.592524,12.235027 122.274979,12.235027 C119.905932,12.235027 118.257899,14.0834516 118.257899,16.8810673 L118.257899,17.2307692 C118.257899,20.2282146 119.854431,21.9767244 122.223478,21.9767244 C124.747028,21.9767244 126.240557,20.4280443 126.240557,17.2307692 Z M132.523681,17.4805563 L132.523681,17.0309395 C132.523681,11.6355379 136.077252,8.68804996 140.918347,8.68804996 C145.862445,8.68804996 149.313013,11.6355379 149.313013,17.0309395 L149.313013,17.4805563 C149.313013,22.7760431 145.913946,25.6236162 140.918347,25.6236162 C135.562241,25.5736588 132.523681,22.7760431 132.523681,17.4805563 Z M144.935427,17.4305989 L144.935427,17.0309395 C144.935427,14.0334942 143.390396,12.235027 140.918347,12.235027 C138.497799,12.235027 136.901268,13.8836219 136.901268,17.0309395 L136.901268,17.4305989 C136.901268,20.3281294 138.446298,21.9767244 140.918347,21.9767244 C143.390396,21.926767 144.935427,20.3281294 144.935427,17.4305989 Z M154.978125,16.8311098 L149.15851,9.08770934 L154.154109,9.08770934 L157.501675,13.9335793 L160.900742,9.08770934 L165.84484,9.08770934 L159.922223,16.7811524 L166.153846,25.1739994 L161.261249,25.1739994 L157.450174,19.8285552 L153.742101,25.1739994 L148.6435,25.1739994 L154.978125,16.8311098 Z" id="Shape"></path>
                </g>
            </g>
        </g>
    </g>
</svg>