<svg xmlns="http://www.w3.org/2000/svg" viewBox="0 0 48.95 49.02"><defs><style>.cls-1{fill:#6e7172;}</style></defs><title>icon-phone0</title><g id="Layer_2" data-name="Layer 2"><g id="Layer_1-2" data-name="Layer 1"><path class="cls-1" d="M8.17,6.62A1.32,1.32,0,0,1,9,6.37a1.4,1.4,0,0,1,1.13.52l4.72,5.87a2.31,2.31,0,0,1,.09,2.5l-2.1,3h0a4,4,0,0,0,.4,4.86l11,11.41a4.06,4.06,0,0,0,4.85.65l2.56-1.53a2,2,0,0,1,2.3.32l5.85,6.25h0a1.09,1.09,0,0,1-.12,1.63l-4.32,3.46A9.93,9.93,0,0,1,31.69,47s-2.25.19-7.87-3.5C16.56,38.7,7.15,28.76,3.22,19a18.78,18.78,0,0,1-1.17-6.25A4.07,4.07,0,0,1,3.52,9.93ZM22.7,45.19c5.25,3.45,8,3.83,9,3.83a1.62,1.62,0,0,0,.38,0,11.63,11.63,0,0,0,4.54-2.06l4.33-3.45h0a3.15,3.15,0,0,0,1.19-2.24,3.1,3.1,0,0,0-.86-2.39L35.4,32.61a4,4,0,0,0-4.84-.68L28,33.46a2,2,0,0,1-2.33-.31l-11-11.4a2,2,0,0,1-.19-2.29l2.1-3.05a4.32,4.32,0,0,0-.18-4.93L11.71,5.61h0A3.51,3.51,0,0,0,7,5L2.33,8.26A6.15,6.15,0,0,0,0,12.74a20.83,20.83,0,0,0,1.32,7C5.6,30.39,15.4,40.39,22.7,45.19Z"/><path class="cls-1" d="M47.93,27.2a1.06,1.06,0,0,0,.73-.3,1,1,0,0,0,.29-.72A26.2,26.2,0,0,0,22.78,0a1,1,0,1,0,0,2.05A24.16,24.16,0,0,1,46.91,26.18a1,1,0,0,0,1,1Z"/><path class="cls-1" d="M39,26.18a1,1,0,0,0,2,0A18.61,18.61,0,0,0,22.49,7.6a1,1,0,0,0,0,2.05A16.52,16.52,0,0,1,39,26.18Z"/><path class="cls-1" d="M21.75,17.37a1,1,0,0,0,1,1,7.8,7.8,0,0,1,7.78,7.79,1,1,0,0,0,2.05,0,9.83,9.83,0,0,0-9.83-9.83,1.06,1.06,0,0,0-.73.3,1,1,0,0,0-.3.72Z"/></g></g></svg>