<svg xmlns="http://www.w3.org/2000/svg" viewBox="0 0 51 37.59"><defs><style>.cls-1{fill:#6e7172;stroke:#6e7172;}</style></defs><title>icon-email</title><g id="Layer_2" data-name="Layer 2"><g id="Layer_1-2" data-name="Layer 1"><path class="cls-1" d="M33.65,19,46.84,6.85V30.72ZM20.06,21.45l3.32,3.05a3,3,0,0,0,4.24,0l3.32-3.05,13.44,12H6.62ZM17.35,19,4.16,30.72V6.85Zm8.15,2.52L6.64,4.16H44.36Zm22-21H3.55a3.06,3.06,0,0,0-3,3.05V34a3.06,3.06,0,0,0,3.05,3.05h43.9a3.06,3.06,0,0,0,3-3.05V3.55A3.06,3.06,0,0,0,47.45.5Z"/></g></g></svg>