<svg width="400px" height="135px" viewBox="0 0 400 135" version="1.1" xmlns="http://www.w3.org/2000/svg" xmlns:xlink="http://www.w3.org/1999/xlink">
    <g id="Page-1" stroke="none" stroke-width="1" fill="none" fill-rule="evenodd" opacity="0.350539435">
        <g id="Version-B" transform="translate(-907.000000, -646.000000)" fill="#000000" fill-rule="nonzero">
            <g id="Okta_logo" transform="translate(907.000000, 646.000000)">
                <g id="Group">
                    <path d="M50.3,33.8 C22.5,33.8 0,56.3 0,84.1 C0,111.9 22.5,134.4 50.3,134.4 C78.1,134.4 100.6,111.9 100.6,84.1 C100.6,56.3 78.1,33.8 50.3,33.8 Z M50.3,109.3 C36.4,109.3 25.1,98 25.1,84.1 C25.1,70.2 36.4,58.9 50.3,58.9 C64.2,58.9 75.5,70.2 75.5,84.1 C75.5,98 64.2,109.3 50.3,109.3 Z" id="Shape"></path>
                    <path d="M138.7,101 C138.7,97 143.5,95.1 146.3,97.9 C158.9,110.7 179.7,132.7 179.8,132.8 C180.1,133.1 180.4,133.6 181.6,134 C182.1,134.2 182.9,134.2 183.8,134.2 L206.5,134.2 C210.6,134.2 211.8,129.5 209.9,127.1 L172.3,88.6 L170.3,86.6 C166,81.5 166.5,79.5 171.4,74.3 L201.2,41 C203.1,38.6 201.9,34 197.7,34 L177.1,34 C176.3,34 175.7,34 175.1,34.2 C173.9,34.6 173.4,35 173.1,35.4 C173,35.5 156.5,53.3 146.3,64.2 C143.5,67.2 138.5,65.2 138.5,61.1 L138.5,4 C138.5,1.1 136.1,0 134.2,0 L117.4,0 C114.5,0 113.1,1.9 113.1,3.6 L113.1,130.2 C113.1,133.1 115.5,133.9 117.5,133.9 L134.3,133.9 C136.9,133.9 138.6,132 138.6,130.1 L138.6,128.8 L138.6,101 L138.7,101 Z" id="Path"></path>
                    <path d="M275.9,129.6 L274.1,112.8 C273.9,110.5 271.7,108.9 269.4,109.3 C268.1,109.5 266.8,109.6 265.5,109.6 C252.1,109.6 241.2,99.1 240.4,85.8 C240.4,85.4 240.4,84.9 240.4,84.4 L240.4,63.8 C240.4,61.1 242.4,58.9 245.1,58.9 L267.6,58.9 C269.2,58.9 271.6,57.5 271.6,54.6 L271.6,38.7 C271.6,35.6 269.6,34 267.8,34 L245.1,34 C242.5,34 240.4,32.1 240.3,29.5 L240.3,4 C240.3,2.4 239.1,0 236,0 L219.3,0 C217.2,0 215.2,1.3 215.2,3.9 C215.2,3.9 215.2,85.4 215.2,85.8 C215.9,113 238.2,134.7 265.5,134.7 C267.8,134.7 270,134.5 272.2,134.2 C274.6,133.9 276.2,131.9 275.9,129.6 Z" id="Path"></path>
                </g>
                <path d="M397.1,108.5 C382.9,108.5 380.7,103.4 380.7,84.3 C380.7,84.2 380.7,84.2 380.7,84.1 L380.7,38.2 C380.7,36.6 379.5,33.9 376.3,33.9 L359.5,33.9 C357.4,33.9 355.1,35.6 355.1,38.2 L355.1,40.3 C347.8,36.1 339.3,33.7 330.3,33.7 C302.5,33.7 280,56.2 280,84 C280,111.8 302.5,134.3 330.3,134.3 C342.8,134.3 354.2,129.7 363,122.2 C367.7,129.4 375.3,134.2 387.2,134.3 C389.2,134.3 400,134.7 400,129.6 L400,111.7 C400,110.2 398.8,108.5 397.1,108.5 Z M330.4,109.3 C316.5,109.3 305.2,98 305.2,84.1 C305.2,70.2 316.5,58.9 330.4,58.9 C344.3,58.9 355.6,70.2 355.6,84.1 C355.5,98 344.2,109.3 330.4,109.3 Z" id="Shape"></path>
            </g>
        </g>
    </g>
</svg>