<svg width="160px" height="44px" viewBox="0 0 160 44" version="1.1" xmlns="http://www.w3.org/2000/svg" xmlns:xlink="http://www.w3.org/1999/xlink">
    <g id="Page-1" stroke="none" stroke-width="1" fill="none" fill-rule="evenodd">
        <g id="Version-B" transform="translate(-1201.000000, -745.000000)">
            <g id="Logos" transform="translate(80.000000, 745.000000)">
                <g id="Symantec" transform="translate(1121.000000, 0.000000)">
                    <path d="M48.6223864,35.5478983 C44.7839458,35.5478983 42.3370983,34.0869492 41.2221831,33.2158983 L41.1065898,33.1271525 L41.1848949,33.0033559 L42.7853017,30.5005763 L42.8770305,30.3566441 L43.0157424,30.4588136 C43.9472,31.1419322 45.9063186,32.289661 48.5634712,32.289661 C50.8462508,32.289661 52.1558102,31.2977966 52.1558102,29.5698644 C52.1558102,27.669661 50.6150644,27.1274915 47.8206915,26.1445763 L47.4910644,26.0274915 C44.6877424,25.0520339 42.0917424,23.6276271 42.0917424,19.8264746 C42.0917424,16.4071525 44.723539,14.1996949 48.7961492,14.1996949 C51.2101831,14.1996949 53.0857763,14.6396949 54.6966237,15.5875593 L54.8234034,15.6621356 L54.7592678,15.7948814 L53.479539,18.442339 L53.4079458,18.5914915 L53.2602847,18.5161695 C51.8873356,17.8129153 50.4055051,17.4564407 48.8550644,17.4564407 C47.4023186,17.4564407 45.6706576,17.8531864 45.6706576,19.7392203 C45.6706576,21.5857288 47.0339119,22.0354237 49.7484881,22.9318305 C52.7002169,23.8938644 55.8495729,25.2765085 55.8495729,29.5131864 C55.8495729,33.2919661 53.1484203,35.5478983 48.6223864,35.5478983" id="Fill-1" fill="#000000" opacity="0.35"></path>
                    <path d="M58.7418644,40.6953763 C58.0401017,40.6953763 57.3741356,40.6140881 56.5828814,40.4313763 L56.4374576,40.3985627 L56.4605763,40.2494102 L56.8394237,37.776461 L56.8617966,37.6220881 L57.0169153,37.6407322 L57.2637627,37.6713085 C57.6418644,37.7182915 57.9409153,37.7578169 58.3645085,37.7578169 C59.7859322,37.7578169 60.6950169,37.2186305 61.3035593,36.0157153 L55.9728475,20.3442576 L55.8997627,20.1317153 L56.1257288,20.1317153 L59.7322373,20.1317153 L59.8530508,20.1317153 L59.8881017,20.2488 L62.9815254,31.324122 L65.7430847,20.2532746 L65.7721695,20.1317153 L65.8989492,20.1317153 L69.3003729,20.1317153 L69.5181356,20.1317153 L69.4547458,20.3405288 L64.714678,35.8419525 C63.7101356,39.1546305 61.810678,40.6953763 58.7418644,40.6953763" id="Fill-3" fill="#000000" opacity="0.35"></path>
                    <path d="M91.2255729,35.2871797 L91.0652339,35.2871797 L87.5743186,35.2871797 L87.4139797,35.2871797 L87.4139797,35.1268407 L87.4139797,25.1492814 C87.4139797,23.8852136 87.1529627,23.0410102 85.8888949,23.0410102 C85.0170983,23.0410102 83.9976407,23.5615525 82.9364203,24.5511797 L82.9364203,35.1268407 L82.9364203,35.2871797 L82.7760814,35.2871797 L79.2859119,35.2871797 L79.1255729,35.2871797 L79.1255729,35.1268407 L79.1255729,25.1492814 C79.1255729,23.8852136 78.8653017,23.0410102 77.5989966,23.0410102 C76.6712678,23.0410102 75.5981153,23.6100271 74.6472678,24.6048746 L74.6472678,35.1268407 L74.6472678,35.2871797 L74.4869288,35.2871797 L70.9960136,35.2871797 L70.8356746,35.2871797 L70.8356746,35.1268407 L70.8356746,20.2928746 L70.8356746,20.1325356 L70.9960136,20.1325356 L73.1184542,20.1325356 L73.235539,20.1325356 L73.2705898,20.2436542 L73.9432678,22.3064339 C75.5205559,20.6269763 77.1187254,19.8118576 78.8198102,19.8118576 C80.979539,19.8118576 81.8610305,20.9901627 82.3621831,22.1006034 C83.4271322,21.0162644 85.0693017,19.8118576 87.1089627,19.8118576 C90.511878,19.8118576 91.2255729,22.7300271 91.2255729,25.1783661 L91.2255729,35.1268407 L91.2255729,35.2871797 Z" id="Fill-5" fill="#000000" opacity="0.35"></path>
                    <path d="M101.462285,28.1092136 C98.9669627,28.5939593 97.7379458,29.0488746 97.2412678,29.6708407 C96.932522,30.0288068 96.8385559,30.3248746 96.8385559,30.9378915 C96.8385559,32.0684678 97.4463525,32.6665695 98.5963186,32.6665695 C99.5486576,32.6665695 100.612115,32.2646034 101.462285,31.5874508 L101.462285,28.1092136 Z M97.8110305,35.5481966 C95.0129288,35.5481966 93.0567932,33.7479254 93.0567932,31.1705695 C93.0567932,29.5134847 93.6332678,28.3508407 94.8712339,27.5163322 C96.1345559,26.655722 98.2346237,26.0322644 101.462285,25.5631797 L101.462285,25.1783661 C101.462285,23.5153153 100.858963,22.8963322 99.2369288,22.8963322 C97.8483186,22.8963322 96.4515051,23.4757898 95.1479119,24.1022305 L95.0092,24.1708407 L94.936861,24.0321288 L93.7145559,21.7351797 L93.6444542,21.6024339 L93.7712339,21.5218915 C95.6915729,20.3391119 97.4739458,19.8118576 99.556861,19.8118576 C103.297607,19.8118576 105.273132,21.7471119 105.273132,25.4117898 L105.273132,35.1253492 L105.273132,35.2856881 L105.112793,35.2856881 L102.988861,35.2856881 L102.882217,35.2856881 L102.8412,35.1879932 L102.205064,33.7158576 C101.255708,34.5869085 99.7656746,35.5481966 97.8110305,35.5481966 L97.8110305,35.5481966 Z" id="Fill-7" fill="#000000" opacity="0.35"></path>
                    <path d="M120.977403,35.2871797 L120.817064,35.2871797 L117.326895,35.2871797 L117.167302,35.2871797 L117.167302,35.1268407 L117.167302,25.1492814 C117.167302,23.6726712 116.648251,23.0410102 115.437878,23.0410102 C114.421403,23.0410102 113.228183,23.6502983 112.310895,24.6324678 L112.310895,35.1268407 L112.310895,35.2871797 L112.14981,35.2871797 L108.659641,35.2871797 L108.499302,35.2871797 L108.499302,35.1268407 L108.499302,20.2928746 L108.499302,20.1325356 L108.659641,20.1325356 L110.783573,20.1325356 L110.900658,20.1325356 L110.935708,20.2436542 L111.607641,22.3325356 C113.177471,20.6366712 114.830827,19.8118576 116.657946,19.8118576 C119.525403,19.8118576 120.977403,21.6173492 120.977403,25.1783661 L120.977403,35.1268407 L120.977403,35.2871797 Z" id="Fill-9" fill="#000000" opacity="0.35"></path>
                    <path d="M128.9332,35.5478983 C125.947166,35.5478983 124.497403,34.0697966 124.497403,31.0241017 L124.497403,22.8669492 L122.44581,22.8669492 L122.285471,22.8669492 L122.285471,22.7066102 L122.285471,20.2925763 L122.285471,20.1329831 L122.44581,20.1329831 L124.5772,20.1329831 L125.253607,16.0193559 L125.27598,15.8843729 L125.412454,15.8843729 L128.147912,15.8843729 L128.308251,15.8843729 L128.308251,16.0454576 L128.308251,20.1329831 L131.346488,20.1329831 L131.506827,20.1329831 L131.506827,20.2925763 L131.506827,22.7066102 L131.506827,22.8669492 L131.346488,22.8669492 L128.308251,22.8669492 L128.308251,30.8212542 C128.308251,32.1188814 128.529742,32.5805085 129.776658,32.5805085 C130.154014,32.5805085 130.748386,32.4716271 131.329336,32.2956271 L131.502353,32.242678 L131.53442,32.4209153 L131.971437,34.8356949 L131.99381,34.9654576 L131.872251,35.014678 C131.477742,35.1750169 130.401607,35.5478983 128.9332,35.5478983" id="Fill-11" fill="#000000" opacity="0.35"></path>
                    <path d="M136.551763,26.3846373 L141.709458,26.3846373 C141.621458,23.8826034 140.801119,22.6632814 139.200712,22.6632814 C137.631627,22.6632814 136.763559,23.8826034 136.551763,26.3846373 M139.460983,35.5478237 C135.218339,35.5478237 132.582068,32.5781966 132.582068,27.7963661 C132.582068,22.9451797 135.178814,19.8114847 139.200712,19.8114847 C143.276305,19.8114847 145.61278,22.7326373 145.61278,27.8254508 L145.61278,28.7285695 L145.61278,28.8881627 L145.453186,28.8881627 L136.521186,28.8881627 C136.729254,31.338739 137.720373,32.4350102 139.723492,32.4350102 C141.361932,32.4350102 142.44478,31.8279593 143.592508,31.0933831 L143.728237,31.0076203 L143.814746,31.1433492 L145.210068,33.3239593 L145.289119,33.4477559 L145.174271,33.5379932 C143.752847,34.6372475 142.344102,35.5478237 139.460983,35.5478237" id="Fill-13" fill="#000000" opacity="0.35"></path>
                    <path d="M154.061898,35.5478983 C149.010847,35.5478983 147.210576,31.5438983 147.210576,27.7956949 C147.210576,24.1138644 149.004881,19.8115593 154.061898,19.8115593 C156.147797,19.8115593 157.604271,20.3097288 158.936949,21.4805763 L159.045085,21.5745424 L158.963051,21.6931186 L157.364136,23.9915593 L157.268678,24.1272881 L157.134441,24.0281017 C156.298441,23.4001695 155.460949,22.9825424 154.090983,22.9825424 C152.13261,22.9825424 151.139254,24.5933898 151.139254,27.7666102 C151.139254,30.8883729 152.134102,32.406 154.177492,32.406 C155.527322,32.406 156.403593,31.8973898 157.301492,31.1344746 L157.429763,31.0255932 L157.531932,31.1590847 L159.190508,33.2830169 L159.276271,33.3933898 L159.179322,33.4940678 C157.810847,34.8953559 156.185831,35.5478983 154.061898,35.5478983" id="Fill-15" fill="#000000" opacity="0.35"></path>
                    <g id="Group-19" transform="translate(0.000000, 5.681668)">
                        <polygon id="Clip-18" points="0 0.174657627 37.8592407 0.174657627 37.8592407 38.0338983 0 38.0338983"></polygon>
                        <path d="M18.9295458,6.1631322 C15.4759186,6.1631322 12.2266305,7.5092339 9.77903729,9.95309831 C7.33517288,12.3984542 5.98757966,15.6484881 5.98757966,19.102861 C5.98757966,22.5579797 7.33517288,25.8087593 9.77978305,28.2563525 C12.225139,30.6972339 15.4751729,32.0448271 18.9295458,32.0448271 C22.3861559,32.0448271 25.6354441,30.6972339 28.0822915,28.2533695 C30.5239186,25.8087593 31.8715119,22.5579797 31.8715119,19.102861 C31.8715119,15.6484881 30.5239186,12.3984542 28.0815458,9.95160678 C25.6339525,7.5092339 22.3831729,6.1631322 18.9295458,6.1631322 M18.9295458,38.0340475 C8.4948339,38.0325559 0.00134237288,29.5405559 -0.000149152542,19.102861 C0.00134237288,8.66665763 8.4948339,0.17540339 18.9295458,0.174657627 C29.3657492,0.17540339 37.8592407,8.66665763 37.8592407,19.102861 C37.8592407,29.5405559 29.3657492,38.0325559 18.9295458,38.0340475" id="Fill-17" fill="#000000" opacity="0.347632999"></path>
                    </g>
                    <polygon id="Clip-23" points="0 43.7155661 165.814373 43.7155661 165.814373 -0.000298305085 0 -0.000298305085"></polygon>
                    <polygon id="Fill-22" fill="#000000" opacity="0.35" points="39.5507797 4.41685424 41.0273898 4.41685424 41.0273898 2.94173559 39.5507797 2.94173559"></polygon>
                    <polygon id="Fill-24" fill="#000000" opacity="0.35" points="39.5507797 1.47780339 41.0273898 1.47780339 41.0273898 -0.000298305085 39.5507797 -0.000298305085"></polygon>
                    <polygon id="Fill-25" fill="#000000" opacity="0.35" points="35.3968814 5.84797288 36.7765424 5.84797288 36.7765424 4.40641356 35.3968814 4.40641356"></polygon>
                    <polygon id="Fill-26" fill="#000000" opacity="0.35" points="32.6651525 8.61400678 34.0552542 8.61400678 34.0552542 7.23658305 32.6651525 7.23658305"></polygon>
                    <polygon id="Fill-27" fill="#000000" opacity="0.35" points="36.7772881 7.23658305 38.3225085 7.23658305 38.3225085 5.84797288 36.7772881 5.84797288"></polygon>
                    <polygon id="Fill-28" fill="#000000" opacity="0.35" points="31.2810169 7.23658305 32.6644068 7.23658305 32.6644068 5.91583729 31.2810169 5.91583729"></polygon>
                    <polygon id="Fill-29" fill="#000000" opacity="0.35" points="35.3968814 8.61400678 36.7765424 8.61400678 36.7765424 7.23658305 35.3968814 7.23658305"></polygon>
                    <polygon id="Fill-30" fill="#000000" opacity="0.35" points="38.0905763 2.94173559 39.5500339 2.94173559 39.5500339 1.47854915 38.0905763 1.47854915"></polygon>
                    <polygon id="Fill-31" fill="#000000" opacity="0.35" points="35.3976271 4.40641356 38.0905763 4.40641356 38.0905763 2.94173559 35.3976271 2.94173559"></polygon>
                    <polygon id="Fill-32" fill="#000000" opacity="0.35" points="34.0552542 7.23658305 35.3976271 7.23658305 35.3976271 4.4056678 34.0552542 4.4056678"></polygon>
                    <path d="M34.0552542,8.61408136 L34.0552542,10.0026915 L32.6651525,10.0026915 L32.6651525,8.61408136 L30.3592542,8.61408136 L30.3592542,9.61564068 L29.1227797,9.61564068 L29.1227797,10.849878 L30.5031864,10.849878 L30.5031864,12.2258102 L29.1227797,12.2258102 L29.1227797,10.849878 L27.6573559,10.849878 L27.6573559,13.0081153 L26.2694915,13.0081153 L26.2694915,14.3840475 L25.3477288,14.3840475 L25.3477288,15.7674373 L24.3364746,15.7674373 C23.1984407,17.4580814 20.3496271,22.7283864 19.4875254,24.8761831 C16.383661,20.5552339 13.9726102,18.8414712 12.0738983,18.2217424 C11.0484746,17.9129966 9.81498305,19.0286576 11.5168136,20.7834373 C15.4238644,25.080522 16.6543729,28.6370644 17.8416271,31.4761831 C18.4695593,32.9721831 21.2863051,33.2033695 21.8530847,31.6812678 C23.0552542,28.4595729 24.7981017,24.8411322 26.8616271,21.8692678 L26.8616271,20.3292678 L27.9638644,20.3292678 L27.9638644,18.9414034 L29.1227797,18.9414034 L29.1227797,17.3313017 L30.5084068,17.3313017 L30.5084068,15.780861 L29.1078644,15.780861 L29.1078644,14.3706237 L30.5084068,14.3706237 L30.5084068,15.780861 L31.8783729,15.780861 L31.8738983,14.3840475 L32.9738983,14.3840475 L32.9738983,12.7001153 L34.2081356,12.7001153 L34.2081356,11.5404542 L35.3976271,11.5404542 L35.3976271,8.61408136 L34.0552542,8.61408136 Z" id="Fill-33" fill="#000000" opacity="0.35"></path>
                </g>
            </g>
        </g>
    </g>
</svg>