<svg width="356px" height="80px" viewBox="0 0 356 80" version="1.1" xmlns="http://www.w3.org/2000/svg" xmlns:xlink="http://www.w3.org/1999/xlink">
    <g id="Page-1" stroke="none" stroke-width="1" fill="none" fill-rule="evenodd" opacity="0.350539435">
        <g id="Version-B" transform="translate(-379.000000, -516.000000)" fill="#000000">
            <g id="Logos" transform="translate(80.000000, 515.000000)">
                <g id="Asset-1" transform="translate(299.000000, 0.000000)">
                    <path d="M217,24 C226.348641,33.3811577 226.33107,48.561963 216.960739,57.9214552 C207.590408,67.2809474 192.409592,67.2809474 183.039261,57.9214552 C173.66893,48.561963 173.651359,33.3811577 183,24 C187.503245,19.4810916 193.620365,16.9410743 200,16.9410743 C206.379635,16.9410743 212.496755,19.4810916 217,24 Z M228.31,12.69 C241.814953,26.1704266 243.917731,47.3130404 233.33251,63.1893993 C222.747289,79.0657581 202.42174,85.2547676 184.78468,77.9719264 C167.147619,70.6890852 157.110446,51.9624483 160.810764,33.2431183 C164.511082,14.5237883 180.918463,1.02454259 200,1 C210.607793,1.0022655 220.780291,5.21802501 228.28,12.72 L228.31,12.69 Z M133,24 C142.348641,33.3811577 142.33107,48.561963 132.960739,57.9214552 C123.590408,67.2809474 108.409592,67.2809474 99.039261,57.9214552 C89.6689298,48.561963 89.6513594,33.3811577 99,24 C103.503245,19.4810916 109.620365,16.9410743 116,16.9410743 C122.379635,16.9410743 128.496755,19.4810916 133,24 Z M144.31,12.69 C157.814953,26.1704266 159.917731,47.3130404 149.33251,63.1893993 C138.747289,79.0657581 118.42174,85.2547676 100.78468,77.9719264 C83.1476194,70.6890852 73.1104456,51.9624483 76.8107635,33.2431183 C80.5110815,14.5237883 96.9184627,1.02454259 116,1 C126.607793,1.0022655 136.780291,5.21802501 144.28,12.72 L144.31,12.69 Z M16,80.8 L20,81 L80,81 L79.8,77 C79.26,70.42 74.6,65.61 68,65.2 L64,65 L28,65 L76,17 L75.8,13 C75.6419614,6.54963563 70.4503644,1.35803864 64,1.2 L60,1 L0,1 L0.2,5 C0.511447255,11.3835064 5.61649359,16.4885527 12,16.8 L16,17 L52,17 L4,65 L4.2,69 C4.42211434,75.4227081 9.57729185,80.5778857 16,80.8 L16,80.8 Z M289.85,25 C291.13589,27.4702966 291.804927,30.2150668 291.8,33 L292,37 L292,65 L292.2,69 C292.450861,75.4101755 297.589824,80.5491387 304,80.8 L308,81 L308,37 L308.2,33 C308.217961,30.2118463 308.903776,27.4685879 310.2,25 C313.07,20.0658534 318.351293,17.034391 324.05941,17.0446982 C329.767527,17.0550053 335.037838,20.1055209 337.89,25.05 C339.161048,27.5254172 339.825962,30.2673329 339.83,33.05 L340.03,37.05 L340.03,65 L340.23,69 C340.451164,75.4115765 345.589007,80.562515 352,80.8 L356,81 L356,33 C356.001659,19.6906407 347.765047,7.76980159 335.315575,3.06345641 C322.866102,-1.64288877 308.803314,1.84798036 300,11.83 C289.356114,-0.235379074 271.408788,-2.5216081 258.08,6.49 C255,3 248,1 244,1 L244,81 L248,80.8 C254.68,80.36 259.54,75.64 259.8,69 L260,65 L260,37 L260.2,33 C260.221052,30.2122378 260.906687,27.469697 262.2,25 C265.061092,20.0607011 270.33689,17.0197241 276.045,17.0197241 C281.75311,17.0197241 287.028908,20.0607011 289.89,25 L289.85,25 Z" id="Shape"></path>
                </g>
            </g>
        </g>
    </g>
</svg>